<svg xmlns="http://www.w3.org/2000/svg" version="1.1" xmlns:xlink="http://www.w3.org/1999/xlink" width="64" height="64"><svg xmlns="http://www.w3.org/2000/svg" version="1.1" xmlns:xlink="http://www.w3.org/1999/xlink" width="64" height="64"><svg width="64" height="64" viewBox="0 0 64 64" fill="none" xmlns="http://www.w3.org/2000/svg">
<rect width="64" height="64" rx="16" fill="#FE28A7"></rect>
<path d="M16.013 43.6403C16.0434 43.3664 16.2408 42.5181 16.2881 42.2923C16.6781 40.4296 17.0482 38.5628 17.4421 36.7009C17.7271 35.3538 18.0503 34.0149 18.3361 32.6679C18.6705 31.0911 18.9762 29.5082 19.307 27.9306C19.5299 26.8676 19.7818 25.8107 20.0078 24.7484C20.2624 23.5518 20.4993 22.3515 20.7502 21.1541C20.9353 20.271 21.1324 19.3904 21.321 18.5081C21.5136 17.6065 21.702 16.704 21.8935 15.8021C21.9136 15.7075 21.9428 15.6149 21.9736 15.4991C22.6572 15.4991 23.3481 15.4991 24.039 15.4991C24.9018 15.4991 25.7655 15.4749 26.6274 15.5045C28.0567 15.5536 29.3937 15.9424 30.5531 16.7959C31.503 17.4951 32.1948 18.4352 32.6518 19.5121C33.0538 20.4594 33.385 21.4414 33.6813 22.4279C34.0509 23.6588 34.3517 24.9103 34.6839 26.1525C35.2358 28.2162 35.7864 30.2804 36.3431 32.3429C36.5645 33.1633 36.8006 33.9799 37.0471 34.8594C37.1208 34.5995 37.1944 34.3897 37.2393 34.174C37.5853 32.5106 37.9194 30.8446 38.2702 29.1821C38.5365 27.92 38.8284 26.6632 39.097 25.4015C39.3699 24.1196 39.6223 22.8334 39.8947 21.5514C40.1205 20.489 40.3663 19.4309 40.5957 18.3692C40.7884 17.4774 40.9665 16.5823 41.1635 15.6914C41.1801 15.6166 41.2912 15.5078 41.3592 15.5072C42.6534 15.4962 43.9572 15.4009 45.2394 15.525C46.7077 15.6672 47.7599 16.6129 48.008 18.1264C48.1104 18.7509 47.9617 19.3798 47.8222 19.9984C47.5766 21.0869 47.3485 22.1794 47.1172 23.2711C46.9281 24.1637 46.7467 25.058 46.5588 25.9509C46.3451 26.967 46.1289 27.9825 45.9121 28.9979C45.7035 29.9753 45.4911 30.952 45.2835 31.9296C45.0697 32.9359 44.862 33.9435 44.6475 34.9496C44.4595 35.8321 44.2627 36.7126 44.0755 37.5953C43.8419 38.6967 43.6162 39.7999 43.3834 40.9015C43.1968 41.7844 43.0027 42.6657 42.8153 43.5484C42.6016 44.5546 42.3928 45.562 42.1793 46.5683C42.1131 46.8804 42.0387 47.1907 41.9626 47.5253C40.726 47.5253 39.4713 47.5729 38.2219 47.5117C37.0077 47.4522 35.8885 47.0231 34.9091 46.295C34.0935 45.6886 33.4897 44.8837 32.9884 44.0101C32.4 42.9849 31.9858 41.8838 31.6349 40.7557C31.0733 38.9496 30.487 37.1512 29.9189 35.3471C29.4841 33.966 29.0337 32.5889 28.6407 31.1957C28.2261 29.7257 27.8717 28.2387 27.4881 26.7598C27.4771 26.7172 27.4338 26.6831 27.3985 26.6353C25.9174 33.6058 24.4399 40.56 22.96 47.5253C21.683 47.5253 20.4147 47.5971 19.1581 47.5062C17.7594 47.405 16.4719 46.5024 16.1347 44.9793C16.1138 44.885 16.0738 44.7055 16.0434 44.5533C16.0149 44.411 15.9809 43.9288 16.013 43.6403Z" fill="white"></path>
</svg></svg><style>@media (prefers-color-scheme: light) { :root { filter: none; } }
@media (prefers-color-scheme: dark) { :root { filter: none; } }
</style></svg>